<?xml version="1.0" encoding="UTF-8"?>
<!DOCTYPE svg PUBLIC "-//W3C//DTD SVG 1.1//EN" "http://www.w3.org/Graphics/SVG/1.1/DTD/svg11.dtd">
<svg xmlns="http://www.w3.org/2000/svg" version="1.1" width="2000px" height="1500px" style="shape-rendering:geometricPrecision; text-rendering:geometricPrecision; image-rendering:optimizeQuality; fill-rule:evenodd; clip-rule:evenodd" xmlns:xlink="http://www.w3.org/1999/xlink">
<g><path style="opacity:1" fill="#fefefe" d="M -0.5,-0.5 C 666.167,-0.5 1332.83,-0.5 1999.5,-0.5C 1999.5,499.5 1999.5,999.5 1999.5,1499.5C 1332.83,1499.5 666.167,1499.5 -0.5,1499.5C -0.5,999.5 -0.5,499.5 -0.5,-0.5 Z"/></g>
<g><path style="opacity:1" fill="#010101" d="M 581.5,793.5 C 581.108,791.821 580.608,790.154 580,788.5C 579.188,792.689 579.355,796.689 580.5,800.5C 586.118,855.022 601.451,906.689 626.5,955.5C 625.998,956.521 625.332,956.688 624.5,956C 620.578,952.749 617.412,948.916 615,944.5C 605.449,924.071 595.949,903.738 586.5,883.5C 586.167,884.5 585.833,885.5 585.5,886.5C 586.172,888.832 586.339,891.166 586,893.5C 555.854,824.859 547.187,753.525 560,679.5C 562.685,664.553 565.852,649.719 569.5,635C 568.833,634 568.167,633 567.5,632C 597.563,527.472 658.563,446.472 750.5,389C 751.866,387.4 752.866,385.567 753.5,383.5C 811.034,347.488 873.701,326.321 941.5,320C 1002.03,315.905 1061.69,321.238 1120.5,336C 1138.52,341.229 1156.35,347.062 1174,353.5C 1175.3,352.107 1176.8,351.607 1178.5,352C 1278.73,393.892 1351.89,464.058 1398,562.5C 1399.44,563.87 1401.11,564.87 1403,565.5C 1448.84,667.838 1455.84,772.838 1424,880.5C 1382.98,1005.52 1302.15,1094.35 1181.5,1147C 1131.02,1166.8 1078.69,1177.96 1024.5,1180.5C 942.89,1177.79 868.224,1153.96 800.5,1109C 785.253,1097.76 771.253,1085.09 758.5,1071C 733.543,1050.38 713.376,1025.88 698,997.5C 697.667,994.5 697.333,991.5 697,988.5C 687.085,975.247 676.418,962.581 665,950.5C 652.917,935.349 642.584,919.016 634,901.5C 624.209,878.833 614.876,857.166 606,836.5C 605.667,837.833 605.333,839.167 605,840.5C 602.428,834.689 600.428,828.689 599,822.5C 590.601,782.122 588.601,741.456 593,700.5C 590.437,708.313 588.771,716.313 588,724.5C 587.806,755.835 587.806,787.169 588,818.5C 584.346,810.6 582.179,802.266 581.5,793.5 Z"/></g>
<g><path style="opacity:1" fill="#575757" d="M 1002.5,421.5 C 1001.83,421.5 1001.5,421.167 1001.5,420.5C 1002.71,419.218 1004.04,419.218 1005.5,420.5C 1004.68,421.386 1003.68,421.719 1002.5,421.5 Z"/></g>
<g><path style="opacity:1" fill="#eaeaea" d="M 1016.5,419.5 C 1018.86,419.337 1021.19,419.503 1023.5,420C 1023.96,420.414 1024.29,420.914 1024.5,421.5C 1022.56,422.528 1020.56,422.528 1018.5,421.5C 1017.29,421.253 1016.62,420.586 1016.5,419.5 Z"/></g>
<g><path style="opacity:1" fill="#fefefe" d="M 1001.5,420.5 C 1001.5,421.167 1001.83,421.5 1002.5,421.5C 1003.09,422.766 1003.59,424.099 1004,425.5C 1005.72,423.556 1007.89,422.556 1010.5,422.5C 1015.24,423.353 1019.91,424.52 1024.5,426C 1029.38,427.718 1032.55,426.218 1034,421.5C 1034.72,420.941 1035.56,420.608 1036.5,420.5C 1039.51,421.853 1042.51,423.186 1045.5,424.5C 1045.84,425.338 1046.51,425.672 1047.5,425.5C 1049.35,426.961 1051.52,427.961 1054,428.5C 1055.03,428.164 1055.53,427.497 1055.5,426.5C 1058.27,425.718 1060.27,424.718 1061.5,423.5C 1064.46,423.71 1067.13,424.71 1069.5,426.5C 1072.64,424.881 1075.98,424.215 1079.5,424.5C 1079.35,425.552 1079.52,426.552 1080,427.5C 1081.93,428.88 1083.76,430.38 1085.5,432C 1081.51,431.842 1077.51,431.342 1073.5,430.5C 1071.19,430.365 1069.19,431.031 1067.5,432.5C 1110.13,441.654 1150.46,456.82 1188.5,478C 1193.98,482.724 1199.98,486.724 1206.5,490C 1210.17,494.333 1213.83,498.667 1217.5,503C 1219.71,504.044 1222.05,504.71 1224.5,505C 1233.6,517.672 1243.77,529.505 1255,540.5C 1261.14,549.968 1267.64,559.134 1274.5,568C 1273.27,569.587 1273.61,570.921 1275.5,572C 1274.83,572.333 1274.17,572.667 1273.5,573C 1279.06,577.195 1281.9,582.695 1282,589.5C 1279.5,585.755 1278.34,586.422 1278.5,591.5C 1281.72,591.108 1284.72,591.608 1287.5,593C 1284.08,595.285 1283.58,598.118 1286,601.5C 1286.94,599.939 1288.11,598.605 1289.5,597.5C 1290.88,598 1291.55,599 1291.5,600.5C 1290.61,602.155 1290.11,603.822 1290,605.5C 1292.12,602.92 1294.29,602.92 1296.5,605.5C 1296.27,607.671 1295.94,609.838 1295.5,612C 1298.81,615.685 1299.15,619.518 1296.5,623.5C 1298.49,629.783 1300.32,636.116 1302,642.5C 1303.34,645.002 1305.17,647.002 1307.5,648.5C 1305.47,650.901 1305.3,653.568 1307,656.5C 1308.86,658.888 1310.19,661.554 1311,664.5C 1312.3,665.56 1313.46,666.726 1314.5,668C 1309.45,677.56 1311.12,685.726 1319.5,692.5C 1318.02,696.366 1317.02,700.366 1316.5,704.5C 1318.02,704.88 1319.69,705.046 1321.5,705C 1322.5,706 1323.5,707 1324.5,708C 1322.15,710.133 1321.15,712.8 1321.5,716C 1323.75,725.362 1324.75,734.862 1324.5,744.5C 1322.83,763.841 1322.5,783.175 1323.5,802.5C 1319.61,802.714 1317.61,804.88 1317.5,809C 1319.49,813.253 1319.99,817.753 1319,822.5C 1316.96,824.208 1315.29,826.208 1314,828.5C 1313.16,835.597 1311.83,842.597 1310,849.5C 1308.39,853.276 1305.56,855.276 1301.5,855.5C 1301.91,861.037 1301.08,866.37 1299,871.5C 1295.57,877.351 1292.41,883.351 1289.5,889.5C 1288.91,889.291 1288.41,888.957 1288,888.5C 1282.81,900.323 1275.14,911.323 1265,921.5C 1261.12,933.05 1254.46,942.717 1245,950.5C 1242.48,953.534 1240.48,956.868 1239,960.5C 1237.6,958.808 1235.77,958.141 1233.5,958.5C 1233.24,961.016 1232.41,963.35 1231,965.5C 1227.59,968.4 1225.76,972.067 1225.5,976.5C 1223.17,976.5 1220.83,976.5 1218.5,976.5C 1218.99,978.806 1219.33,981.139 1219.5,983.5C 1222.69,983.382 1225.69,982.549 1228.5,981C 1234.88,973.62 1240.88,965.953 1246.5,958C 1247.33,957.312 1248,957.479 1248.5,958.5C 1247.05,959.85 1246.38,961.516 1246.5,963.5C 1249.79,962.736 1252.45,960.903 1254.5,958C 1253.38,957.751 1252.38,957.251 1251.5,956.5C 1252.95,954.333 1254.11,952 1255,949.5C 1256.01,948.663 1257.18,948.33 1258.5,948.5C 1258.58,949.93 1258.25,951.264 1257.5,952.5C 1258,952.833 1258.5,953.167 1259,953.5C 1262.69,948.144 1267.36,943.81 1273,940.5C 1274.18,942.344 1275.35,944.177 1276.5,946C 1269.32,949.859 1264.15,955.693 1261,963.5C 1259.27,965.402 1257.44,967.069 1255.5,968.5C 1250.62,968.384 1248.62,970.717 1249.5,975.5C 1242.32,977.657 1237.98,982.491 1236.5,990C 1233.46,991.849 1230.13,993.016 1226.5,993.5C 1227.17,994.167 1227.83,994.833 1228.5,995.5C 1225.44,996.196 1222.44,997.03 1219.5,998C 1215.2,1001.3 1211.2,1004.96 1207.5,1009C 1206,1009.51 1204.84,1009.01 1204,1007.5C 1199.06,1013.56 1192.9,1018.06 1185.5,1021C 1185.17,1021.33 1184.83,1021.67 1184.5,1022C 1187.59,1022.65 1190.59,1022.32 1193.5,1021C 1199.68,1018.08 1205.34,1014.41 1210.5,1010C 1212.5,1009.67 1214.5,1009.33 1216.5,1009C 1226.74,998.556 1238.07,989.556 1250.5,982C 1253.83,978.667 1257.17,975.333 1260.5,972C 1259.06,971.781 1257.73,971.281 1256.5,970.5C 1258.4,969.534 1260.4,969.201 1262.5,969.5C 1263.26,969.923 1264.1,970.257 1265,970.5C 1267.02,968.651 1268.85,966.651 1270.5,964.5C 1270.83,964.5 1271.17,964.5 1271.5,964.5C 1271.65,967.607 1271.15,970.607 1270,973.5C 1264.88,978.754 1261.05,984.754 1258.5,991.5C 1256.14,991.337 1253.81,991.503 1251.5,992C 1251.17,995.987 1249.5,999.32 1246.5,1002C 1239.58,1004.71 1233.41,1008.54 1228,1013.5C 1227.8,1015.26 1227.3,1016.92 1226.5,1018.5C 1218.76,1022.74 1211.43,1027.58 1204.5,1033C 1187.19,1041.32 1169.53,1048.65 1151.5,1055C 1149.44,1058.72 1146.44,1061.39 1142.5,1063C 1127.51,1063.41 1113.51,1067.25 1100.5,1074.5C 1089.74,1073.06 1079.4,1074.56 1069.5,1079C 1070.5,1079.17 1071.5,1079.33 1072.5,1079.5C 1082.21,1077.71 1082.71,1078.71 1074,1082.5C 1072.08,1082.06 1070.25,1081.4 1068.5,1080.5C 1066.94,1077.11 1064.27,1075.77 1060.5,1076.5C 1059.95,1078.33 1059.95,1080 1060.5,1081.5C 1062.41,1080.65 1064.41,1080.32 1066.5,1080.5C 1066.19,1083.35 1064.52,1084.85 1061.5,1085C 1055.5,1085.99 1049.67,1085.49 1044,1083.5C 1038.15,1085.16 1032.15,1086.16 1026,1086.5C 1023.66,1086.32 1021.82,1085.32 1020.5,1083.5C 1017.92,1084.39 1015.25,1084.73 1012.5,1084.5C 1009.36,1083.36 1006.03,1083.19 1002.5,1084C 1003.04,1084.72 1003.71,1085.22 1004.5,1085.5C 1008.81,1086.82 1013.14,1088.16 1017.5,1089.5C 1017,1090.88 1016,1091.55 1014.5,1091.5C 1011.06,1090.03 1007.56,1088.7 1004,1087.5C 996.203,1088.62 988.37,1088.79 980.5,1088C 964.741,1085.87 949.074,1083.21 933.5,1080C 929.179,1079.5 924.846,1079.33 920.5,1079.5C 920.657,1078.13 920.49,1076.79 920,1075.5C 917.75,1074.29 915.583,1072.96 913.5,1071.5C 912.312,1072.84 910.812,1073.51 909,1073.5C 906.176,1072.95 903.343,1072.45 900.5,1072C 898.484,1068.48 895.484,1066.15 891.5,1065C 883.97,1064.25 877.136,1061.75 871,1057.5C 869.589,1055.35 868.755,1053.02 868.5,1050.5C 863.562,1050.47 858.896,1049.3 854.5,1047C 848.362,1043.03 842.362,1038.86 836.5,1034.5C 837.025,1033.81 837.692,1033.31 838.5,1033C 834.615,1030.96 830.615,1029.12 826.5,1027.5C 827.882,1024.56 826.882,1022.72 823.5,1022C 817.801,1016.64 812.467,1010.97 807.5,1005C 804.066,1002.57 800.4,1000.57 796.5,999C 789.468,992.303 782.802,985.303 776.5,978C 775.167,977.333 773.833,976.667 772.5,976C 774.56,974.507 774.893,972.674 773.5,970.5C 769.058,966.551 764.225,963.218 759,960.5C 758.982,958.203 759.149,955.869 759.5,953.5C 757.139,953.674 754.806,954.007 752.5,954.5C 752.203,958.911 753.369,962.911 756,966.5C 761.667,971.5 767.333,976.5 773,981.5C 773.627,983.586 773.127,983.919 771.5,982.5C 770.28,982.887 769.613,983.72 769.5,985C 770.577,987.669 772.243,989.836 774.5,991.5C 774.281,990.325 774.614,989.325 775.5,988.5C 778.64,990.473 781.64,992.64 784.5,995C 782.46,996.38 780.46,996.88 778.5,996.5C 783.364,1000.54 787.03,1005.54 789.5,1011.5C 787.833,1012.83 786.167,1014.17 784.5,1015.5C 782.962,1012.12 781.128,1008.79 779,1005.5C 774.815,1002.4 770.815,999.072 767,995.5C 765.25,992.754 764.25,989.754 764,986.5C 762.301,985.594 760.467,985.261 758.5,985.5C 757.562,977.724 753.229,972.891 745.5,971C 744.056,967.675 743.056,964.175 742.5,960.5C 741.549,961.326 740.549,961.492 739.5,961C 740.591,958.936 740.758,956.769 740,954.5C 737.084,949.085 733.584,944.085 729.5,939.5C 730.09,938.201 731.09,937.368 732.5,937C 730,935.833 728.167,934 727,931.5C 724.852,926.711 722.519,922.044 720,917.5C 718.513,919.272 718.18,921.272 719,923.5C 721.451,930.404 724.451,937.07 728,943.5C 728.805,949.441 731.472,954.441 736,958.5C 739.755,965.009 743.255,971.676 746.5,978.5C 745.959,980.535 745.292,982.535 744.5,984.5C 733.299,976.799 723.966,967.299 716.5,956C 716.779,953.338 717.945,952.505 720,953.5C 720.667,950.5 720.667,947.5 720,944.5C 717.457,943.793 715.291,942.46 713.5,940.5C 712.522,940.977 711.689,941.643 711,942.5C 710.08,939.062 708.413,936.062 706,933.5C 701.488,918.453 696.822,903.453 692,888.5C 689.722,882.333 687.055,876.333 684,870.5C 684.257,856.054 682.423,841.887 678.5,828C 679.95,818.795 679.784,809.628 678,800.5C 677.751,799.376 677.251,798.376 676.5,797.5C 675.672,801.796 675.172,806.129 675,810.5C 674.586,810.957 674.086,811.291 673.5,811.5C 672.071,805.934 671.404,800.267 671.5,794.5C 672.942,778.525 673.942,762.525 674.5,746.5C 675.5,746.5 676.5,746.5 677.5,746.5C 677.646,742.481 677.979,738.481 678.5,734.5C 679.622,732.712 679.789,730.712 679,728.5C 678.487,729.527 677.987,730.527 677.5,731.5C 673.73,738.036 671.396,745.036 670.5,752.5C 669.178,752.33 668.011,752.663 667,753.5C 666.87,763.882 666.204,774.216 665,784.5C 664.323,786.689 663.156,787.022 661.5,785.5C 659.441,790.283 658.107,795.283 657.5,800.5C 655.504,795.022 654.338,789.355 654,783.5C 653.376,763.154 653.71,742.82 655,722.5C 656.912,720.343 658.579,718.009 660,715.5C 659.44,720.756 659.44,726.09 660,731.5C 660.743,733.645 661.576,733.811 662.5,732C 668.036,659.485 692.869,594.652 737,537.5C 740.038,534.797 742.705,531.797 745,528.5C 745.333,532.5 745.667,536.5 746,540.5C 758.333,525.5 770.667,510.5 783,495.5C 787.688,491.311 792.521,487.311 797.5,483.5C 798.583,484.365 798.749,485.365 798,486.5C 796.293,488.037 794.793,489.704 793.5,491.5C 791.683,492.219 791.016,493.219 791.5,494.5C 792.855,493.812 793.855,492.812 794.5,491.5C 799.372,488.489 804.706,486.989 810.5,487C 810.957,486.586 811.291,486.086 811.5,485.5C 810.271,484.719 808.938,484.219 807.5,484C 806.167,483.333 806.167,482.667 807.5,482C 811.132,479.37 814.465,476.37 817.5,473C 824.309,471.356 830.309,468.189 835.5,463.5C 835.833,463.667 836.167,463.833 836.5,464C 827.849,471.882 828.515,473.716 838.5,469.5C 839.167,467.5 839.833,465.5 840.5,463.5C 843.421,464.407 846.421,464.74 849.5,464.5C 851.011,461.463 852.344,458.296 853.5,455C 855.5,454.667 857.5,454.333 859.5,454C 882.027,442.823 905.693,435.49 930.5,432C 933.446,431.194 936.112,429.861 938.5,428C 937.167,427.667 935.833,427.333 934.5,427C 936.5,426.333 938.5,426.333 940.5,427C 941.975,431.083 943.975,431.416 946.5,428C 955.458,426.747 964.458,425.914 973.5,425.5C 973.36,423.876 974.027,422.71 975.5,422C 979.524,421.503 983.524,421.669 987.5,422.5C 987.5,423.833 987.5,425.167 987.5,426.5C 990.85,426.494 993.85,425.494 996.5,423.5C 996.291,422.914 995.957,422.414 995.5,422C 997.345,420.872 999.345,420.372 1001.5,420.5 Z"/></g>
<g><path style="opacity:1" fill="#cdcdcd" d="M 1055.5,426.5 C 1052.79,426.425 1050.13,426.092 1047.5,425.5C 1046.51,425.672 1045.84,425.338 1045.5,424.5C 1044.15,423.35 1044.32,422.683 1046,422.5C 1049.65,423.017 1052.81,424.351 1055.5,426.5 Z"/></g>
<g><path style="opacity:1" fill="#232323" d="M 1047.5,425.5 C 1050.13,426.092 1052.79,426.425 1055.5,426.5C 1055.53,427.497 1055.03,428.164 1054,428.5C 1051.52,427.961 1049.35,426.961 1047.5,425.5 Z"/></g>
<g><path style="opacity:1" fill="#d2d2d2" d="M 838.5,457.5 C 841.928,458.235 842.094,459.902 839,462.5C 838.097,461.299 836.931,460.465 835.5,460C 836.571,459.148 837.571,458.315 838.5,457.5 Z"/></g>
<g><path style="opacity:1" fill="#757575" d="M 793.5,491.5 C 793.833,491.5 794.167,491.5 794.5,491.5C 793.855,492.812 792.855,493.812 791.5,494.5C 791.016,493.219 791.683,492.219 793.5,491.5 Z"/></g>
<g><path style="opacity:1" fill="#070707" d="M 1011.5,549.5 C 1015.27,549.263 1018.94,549.763 1022.5,551C 1024.39,553.917 1024.89,557.084 1024,560.5C 1022.41,565.602 1020.24,570.435 1017.5,575C 1026.53,573.107 1035.53,570.774 1044.5,568C 1048.17,567.333 1051.83,567.333 1055.5,568C 1057.44,570.153 1057.94,572.653 1057,575.5C 1055.22,580.821 1053.89,586.154 1053,591.5C 1066,601.833 1077.67,613.5 1088,626.5C 1097.13,644.448 1096.47,662.114 1086,679.5C 1055.02,727.608 1012.19,742.774 957.5,725C 941.103,717.935 926.936,707.768 915,694.5C 901.806,676.435 900.139,657.435 910,637.5C 915.824,630.257 923.157,625.257 932,622.5C 937.784,624.403 938.951,627.903 935.5,633C 918.672,639.809 911.505,652.309 914,670.5C 917.736,680.129 923.569,688.295 931.5,695C 950.886,710.188 972.886,719.021 997.5,721.5C 1029.98,719.848 1055.48,705.848 1074,679.5C 1087.72,652.766 1083.22,629.599 1060.5,610C 1054.01,603.93 1047.01,598.596 1039.5,594C 1041.69,589.769 1043.69,585.435 1045.5,581C 1033.58,583.653 1021.58,586.319 1009.5,589C 1004.91,589.799 1000.41,589.632 996,588.5C 995.333,586.833 995.333,585.167 996,583.5C 1000.5,577 1005,570.5 1009.5,564C 1002.47,565.898 995.474,568.231 988.5,571C 976.248,574.419 963.915,577.419 951.5,580C 944.341,581.827 938.174,585.327 933,590.5C 930.73,594.93 930.063,599.597 931,604.5C 932.647,608.422 933.647,612.422 934,616.5C 931.078,621.233 927.745,621.566 924,617.5C 913.269,594.136 920.102,578.636 944.5,571C 958.531,567.46 972.531,563.794 986.5,560C 994.703,555.89 1003.04,552.39 1011.5,549.5 Z"/></g>
<g><path style="opacity:1" fill="#090909" d="M 1017.5,606.5 C 1023.82,606.32 1026.32,609.32 1025,615.5C 1023.51,620.216 1020.34,621.716 1015.5,620C 1013.03,615.045 1013.7,610.545 1017.5,606.5 Z"/></g>
<g><path style="opacity:1" fill="#101010" d="M 961.5,613.5 C 968.267,614.682 970.767,618.682 969,625.5C 965.751,629.367 962.418,629.367 959,625.5C 956.393,620.612 957.226,616.612 961.5,613.5 Z"/></g>
<g><path style="opacity:1" fill="#444444" d="M 1291.5,615.5 C 1292.79,614.355 1293.96,614.689 1295,616.5C 1295.67,617.833 1295.67,619.167 1295,620.5C 1293.97,618.654 1292.8,616.987 1291.5,615.5 Z"/></g>
<g><path style="opacity:1" fill="#070707" d="M 1028.5,629.5 C 1035.82,627.681 1039.32,630.347 1039,637.5C 1038.5,638.667 1037.67,639.5 1036.5,640C 1016.89,642.359 997.22,644.025 977.5,645C 969.516,646.655 962.183,649.655 955.5,654C 956.185,656.795 956.685,659.628 957,662.5C 957.839,663.624 959.006,664.291 960.5,664.5C 977.3,660.62 994.3,659.12 1011.5,660C 1014.33,663.663 1014,666.996 1010.5,670C 995.274,669.647 980.274,671.314 965.5,675C 964.692,675.308 964.025,675.808 963.5,676.5C 978.153,693.375 995.819,697.208 1016.5,688C 1040.95,677.605 1050.45,659.438 1045,633.5C 1048.62,630.657 1051.95,630.99 1055,634.5C 1061.16,664.675 1049.99,685.842 1021.5,698C 977.232,712.036 951.232,696.203 943.5,650.5C 943.406,648.088 944.406,646.255 946.5,645C 956.681,639.94 967.348,636.273 978.5,634C 995.322,632.55 1011.99,631.05 1028.5,629.5 Z"/></g>
<g><path style="opacity:1" fill="#040404" d="M 844.5,700.5 C 857.833,700.5 871.167,700.5 884.5,700.5C 884.5,703.833 884.5,707.167 884.5,710.5C 871.167,710.5 857.833,710.5 844.5,710.5C 844.5,707.167 844.5,703.833 844.5,700.5 Z"/></g>
<g><path style="opacity:1" fill="#040404" d="M 1113.5,700.5 C 1126.83,700.5 1140.17,700.5 1153.5,700.5C 1153.5,703.833 1153.5,707.167 1153.5,710.5C 1140.17,710.5 1126.83,710.5 1113.5,710.5C 1113.5,707.167 1113.5,703.833 1113.5,700.5 Z"/></g>
<g><path style="opacity:1" fill="#000000" d="M 844.5,720.5 C 857.833,720.5 871.167,720.5 884.5,720.5C 884.5,723.833 884.5,727.167 884.5,730.5C 871.167,730.5 857.833,730.5 844.5,730.5C 844.5,727.167 844.5,723.833 844.5,720.5 Z"/></g>
<g><path style="opacity:1" fill="#000000" d="M 1113.5,720.5 C 1126.83,720.5 1140.17,720.5 1153.5,720.5C 1153.5,723.833 1153.5,727.167 1153.5,730.5C 1140.17,730.5 1126.83,730.5 1113.5,730.5C 1113.5,727.167 1113.5,723.833 1113.5,720.5 Z"/></g>
<g><path style="opacity:1" fill="#767676" d="M 678.5,734.5 C 678.737,733.209 678.404,732.209 677.5,731.5C 677.987,730.527 678.487,729.527 679,728.5C 679.789,730.712 679.622,732.712 678.5,734.5 Z"/></g>
<g><path style="opacity:1" fill="#040404" d="M 826.5,759.5 C 826.167,778.845 826.5,798.178 827.5,817.5C 828.107,817.376 828.44,817.043 828.5,816.5C 844.144,797.853 859.81,779.186 875.5,760.5C 881.137,759.337 886.804,759.17 892.5,760C 878.951,775.594 865.284,791.094 851.5,806.5C 865.972,827.472 880.639,848.305 895.5,869C 889.804,869.83 884.137,869.663 878.5,868.5C 866.857,850.868 854.857,833.535 842.5,816.5C 836.816,821.351 831.649,826.684 827,832.5C 826.5,844.829 826.333,857.162 826.5,869.5C 822.167,869.5 817.833,869.5 813.5,869.5C 813.5,832.833 813.5,796.167 813.5,759.5C 817.833,759.5 822.167,759.5 826.5,759.5 Z"/></g>
<g><path style="opacity:1" fill="#a2a2a2" d="M 826.5,759.5 C 827.167,778.5 827.833,797.5 828.5,816.5C 828.44,817.043 828.107,817.376 827.5,817.5C 826.5,798.178 826.167,778.845 826.5,759.5 Z"/></g>
<g><path style="opacity:1" fill="#050505" d="M 958.5,759.5 C 972.504,759.333 986.504,759.5 1000.5,760C 1017.71,761.535 1029.54,770.369 1036,786.5C 1050.49,851.516 1024.66,879.182 958.5,869.5C 958.5,832.833 958.5,796.167 958.5,759.5 Z"/></g>
<g><path style="opacity:1" fill="#040404" d="M 1102.5,759.5 C 1117.17,759.333 1131.84,759.5 1146.5,760C 1167.19,763.479 1179.36,775.646 1183,796.5C 1187.19,816.711 1184.19,835.711 1174,853.5C 1166.63,863.271 1156.79,868.438 1144.5,869C 1130.5,869.5 1116.5,869.667 1102.5,869.5C 1102.5,832.833 1102.5,796.167 1102.5,759.5 Z"/></g>
<g><path style="opacity:1" fill="#fdfdfd" d="M 971.5,771.5 C 981.839,771.334 992.172,771.5 1002.5,772C 1014.2,774.696 1021.7,781.863 1025,793.5C 1026.98,807.161 1026.98,820.828 1025,834.5C 1022.27,846.232 1015.1,853.732 1003.5,857C 992.839,857.5 982.172,857.667 971.5,857.5C 971.5,828.833 971.5,800.167 971.5,771.5 Z"/></g>
<g><path style="opacity:1" fill="#fdfdfd" d="M 1115.5,771.5 C 1125.84,771.334 1136.17,771.5 1146.5,772C 1158.2,774.696 1165.7,781.863 1169,793.5C 1170.98,807.492 1170.98,821.492 1169,835.5C 1165.7,847.137 1158.2,854.304 1146.5,857C 1136.17,857.5 1125.84,857.666 1115.5,857.5C 1115.5,828.833 1115.5,800.167 1115.5,771.5 Z"/></g>
<g><path style="opacity:1" fill="#929292" d="M 581.5,793.5 C 580.532,795.607 580.198,797.941 580.5,800.5C 579.355,796.689 579.188,792.689 580,788.5C 580.608,790.154 581.108,791.821 581.5,793.5 Z"/></g>
<g><path style="opacity:1" fill="#050505" d="M 917.5,851.5 C 920.518,851.335 923.518,851.502 926.5,852C 930.235,853.8 931.902,856.8 931.5,861C 932.009,868.491 928.509,871.991 921,871.5C 917.089,871.207 914.422,869.207 913,865.5C 911.309,859.61 912.809,854.944 917.5,851.5 Z"/></g>
<g><path style="opacity:1" fill="#060606" d="M 1061.5,851.5 C 1073.22,850.051 1077.72,855.051 1075,866.5C 1072.97,870.134 1069.81,871.8 1065.5,871.5C 1062.57,871.846 1060.24,870.846 1058.5,868.5C 1055.03,861.811 1056.03,856.145 1061.5,851.5 Z"/></g>
<g><path style="opacity:1" fill="#8e8e8e" d="M 813.5,898.5 C 820.011,897.182 826.678,897.182 833.5,898.5C 833.376,899.107 833.043,899.44 832.5,899.5C 826.355,898.51 820.022,898.177 813.5,898.5 Z"/></g>
<g><path style="opacity:1" fill="#939393" d="M 1035.5,898.5 C 1030.64,898.181 1025.97,898.514 1021.5,899.5C 1020.96,899.44 1020.62,899.107 1020.5,898.5C 1025.65,897.186 1030.65,897.186 1035.5,898.5 Z"/></g>
<g><path style="opacity:1" fill="#969696" d="M 1065.5,898.5 C 1070.02,897.188 1074.68,897.188 1079.5,898.5C 1079.38,899.107 1079.04,899.44 1078.5,899.5C 1074.37,898.515 1070.03,898.182 1065.5,898.5 Z"/></g>
<g><path style="opacity:1" fill="#020202" d="M 813.5,898.5 C 820.022,898.177 826.355,898.51 832.5,899.5C 830.61,899.297 829.11,899.963 828,901.5C 827.333,916.167 827.333,930.833 828,945.5C 828.671,946.252 829.504,946.586 830.5,946.5C 826.167,947.833 821.833,947.833 817.5,946.5C 818.222,946.082 818.722,945.416 819,944.5C 819.667,930.167 819.667,915.833 819,901.5C 817.281,900.131 815.448,899.131 813.5,898.5 Z"/></g>
<g><path style="opacity:1" fill="#111111" d="M 1021.5,899.5 C 1025.97,898.514 1030.64,898.181 1035.5,898.5C 1040.42,910.765 1045.26,923.098 1050,935.5C 1050.69,936.738 1051.19,936.738 1051.5,935.5C 1051.83,935.5 1052.17,935.5 1052.5,935.5C 1051.43,940.054 1049.76,944.388 1047.5,948.5C 1040.85,933.735 1034.69,918.735 1029,903.5C 1028.33,917.167 1028.33,930.833 1029,944.5C 1031.05,945.887 1033.21,947.054 1035.5,948C 1030.8,948.828 1026.13,948.662 1021.5,947.5C 1023.19,946.772 1024.69,945.772 1026,944.5C 1026.83,929.822 1026.67,915.155 1025.5,900.5C 1024.26,899.754 1022.93,899.421 1021.5,899.5 Z"/></g>
<g><path style="opacity:1" fill="#060606" d="M 1065.5,898.5 C 1070.03,898.182 1074.37,898.515 1078.5,899.5C 1076.61,899.297 1075.11,899.963 1074,901.5C 1073.33,916.167 1073.33,930.833 1074,945.5C 1075.95,946.11 1077.78,946.943 1079.5,948C 1072.81,948.831 1066.14,948.664 1059.5,947.5C 1061.54,946.935 1063.21,945.935 1064.5,944.5C 1065.83,930.833 1065.83,917.167 1064.5,903.5C 1064.5,902.833 1064.5,902.167 1064.5,901.5C 1064.56,900.391 1064.89,899.391 1065.5,898.5 Z"/></g>
<g><path style="opacity:1" fill="#bcbcbc" d="M 1064.5,903.5 C 1065.83,917.167 1065.83,930.833 1064.5,944.5C 1064.83,931.989 1064.5,919.655 1063.5,907.5C 1064.23,906.292 1064.57,904.959 1064.5,903.5 Z"/></g>
<g><path style="opacity:1" fill="#101010" d="M 868.5,910.5 C 880.521,909.192 886.521,914.526 886.5,926.5C 879.167,926.5 871.833,926.5 864.5,926.5C 863.394,934.022 865.728,940.189 871.5,945C 877.076,946.373 881.409,944.706 884.5,940C 885.167,939.333 885.833,939.333 886.5,940C 882.655,948.088 876.322,951.088 867.5,949C 861.836,946.668 858.336,942.501 857,936.5C 854.638,924.905 858.471,916.238 868.5,910.5 Z"/></g>
<g><path style="opacity:1" fill="#0f0f0f" d="M 902.5,910.5 C 909.376,909.047 914.876,911.047 919,916.5C 919.333,926.167 919.667,935.833 920,945.5C 921.458,946.747 922.958,946.747 924.5,945.5C 925.696,945.846 925.696,946.346 924.5,947C 919.344,949.655 915.011,948.822 911.5,944.5C 906.091,948.86 900.258,949.527 894,946.5C 892,942.5 892,938.5 894,934.5C 899.231,931.362 904.731,928.696 910.5,926.5C 914.799,914.644 911.132,910.477 899.5,914C 903.868,918.148 903.368,921.315 898,923.5C 894.375,922.592 893.041,920.259 894,916.5C 896.322,913.605 899.155,911.605 902.5,910.5 Z"/></g>
<g><path style="opacity:1" fill="#101010" d="M 947.5,910.5 C 955.867,910.331 958.2,913.831 954.5,921C 951.099,922.135 949.099,920.968 948.5,917.5C 948.79,915.956 949.456,914.623 950.5,913.5C 945.689,913.092 942.523,915.425 941,920.5C 940.333,928.5 940.333,936.5 941,944.5C 942.916,945.928 945.083,946.928 947.5,947.5C 940.833,948.833 934.167,948.833 927.5,947.5C 928.991,946.756 930.491,946.09 932,945.5C 932.667,935.5 932.667,925.5 932,915.5C 930.693,914.228 929.193,913.228 927.5,912.5C 931.783,911.508 936.116,911.174 940.5,911.5C 940.338,913.527 940.505,915.527 941,917.5C 942.694,914.642 944.861,912.309 947.5,910.5 Z"/></g>
<g><path style="opacity:1" fill="#131313" d="M 974.5,916.5 C 972.45,925.674 971.95,935.008 973,944.5C 973.833,946 975,947.167 976.5,948C 970.804,948.83 965.137,948.663 959.5,947.5C 960.991,946.756 962.491,946.09 964,945.5C 964.667,935.167 964.667,924.833 964,914.5C 962.491,913.91 960.991,913.244 959.5,912.5C 963.783,911.508 968.116,911.174 972.5,911.5C 972.338,913.527 972.505,915.527 973,917.5C 973.383,916.944 973.883,916.611 974.5,916.5 Z"/></g>
<g><path style="opacity:1" fill="#141414" d="M 974.5,916.5 C 976.341,912.65 979.508,910.65 984,910.5C 987.637,910.487 990.637,911.82 993,914.5C 994.284,924.401 994.951,934.401 995,944.5C 996.008,946.259 997.508,947.426 999.5,948C 993.804,948.83 988.137,948.663 982.5,947.5C 983.628,946.738 984.795,946.071 986,945.5C 986.667,935.5 986.667,925.5 986,915.5C 981.978,912.805 978.144,913.138 974.5,916.5 Z"/></g>
<g><path style="opacity:1" fill="#121212" d="M 1095.5,910.5 C 1105.16,909.077 1111.99,912.743 1116,921.5C 1116.87,927.917 1116.54,934.251 1115,940.5C 1109.78,949.343 1102.28,951.843 1092.5,948C 1086.07,943.428 1083.07,937.094 1083.5,929C 1083.75,920.273 1087.75,914.106 1095.5,910.5 Z"/></g>
<g><path style="opacity:1" fill="#0b0b0b" d="M 1133.5,911.5 C 1134.31,913.631 1134.81,915.964 1135,918.5C 1135.38,917.944 1135.88,917.611 1136.5,917.5C 1134.5,926.031 1134,934.698 1135,943.5C 1136.98,945.739 1139.48,947.072 1142.5,947.5C 1135.86,948.664 1129.19,948.831 1122.5,948C 1124.29,947.215 1125.79,946.049 1127,944.5C 1127.67,934.833 1127.67,925.167 1127,915.5C 1125.69,914.228 1124.19,913.228 1122.5,912.5C 1126.11,911.511 1129.77,911.177 1133.5,911.5 Z"/></g>
<g><path style="opacity:1" fill="#8a8a8a" d="M 1133.5,911.5 C 1133.56,910.957 1133.89,910.624 1134.5,910.5C 1135.17,912.631 1135.84,914.631 1136.5,916.5C 1136.5,916.833 1136.5,917.167 1136.5,917.5C 1135.88,917.611 1135.38,917.944 1135,918.5C 1134.81,915.964 1134.31,913.631 1133.5,911.5 Z"/></g>
<g><path style="opacity:1" fill="#171717" d="M 1136.5,917.5 C 1136.5,917.167 1136.5,916.833 1136.5,916.5C 1139.5,910.994 1143.83,909.494 1149.5,912C 1151.44,914.153 1151.94,916.653 1151,919.5C 1147.2,922.575 1144.36,921.908 1142.5,917.5C 1142.88,915.617 1143.88,914.117 1145.5,913C 1144.17,912.333 1142.83,912.333 1141.5,913C 1139.96,914.707 1138.3,916.207 1136.5,917.5 Z"/></g>
<g><path style="opacity:1" fill="#0f0f0f" d="M 1166.5,910.5 C 1178.28,909.384 1184.28,914.718 1184.5,926.5C 1177.17,926.5 1169.83,926.5 1162.5,926.5C 1161.65,932.568 1162.99,938.068 1166.5,943C 1172.94,946.839 1178.44,945.673 1183,939.5C 1182.85,943.285 1181.01,946.118 1177.5,948C 1166.07,951.704 1158.57,947.87 1155,936.5C 1152.22,924.593 1156.06,915.927 1166.5,910.5 Z"/></g>
<g><path style="opacity:1" fill="#f7f7f7" d="M 878.5,920.5 C 878.5,921.833 878.5,923.167 878.5,924.5C 874.167,924.5 869.833,924.5 865.5,924.5C 865.5,923.5 865.5,922.5 865.5,921.5C 866.116,913.337 869.949,911.003 877,914.5C 878.128,916.345 878.628,918.345 878.5,920.5 Z"/></g>
<g><path style="opacity:1" fill="#fbfbfb" d="M 1097.5,912.5 C 1102.96,911.784 1106.46,914.117 1108,919.5C 1108.67,926.167 1108.67,932.833 1108,939.5C 1106.61,946.582 1102.61,948.915 1096,946.5C 1094.25,944.51 1093.25,942.177 1093,939.5C 1092.14,931.768 1092.48,924.102 1094,916.5C 1095.38,915.295 1096.54,913.962 1097.5,912.5 Z"/></g>
<g><path style="opacity:1" fill="#f9f9f9" d="M 1176.5,924.5 C 1172.17,924.5 1167.83,924.5 1163.5,924.5C 1163.5,923.167 1163.5,921.833 1163.5,920.5C 1164.16,914.33 1167.5,911.83 1173.5,913C 1176.01,916.413 1177.01,920.247 1176.5,924.5 Z"/></g>
<g><path style="opacity:1" fill="#7a7a7a" d="M 878.5,920.5 C 879.451,921.919 879.784,923.585 879.5,925.5C 874.5,925.5 869.5,925.5 864.5,925.5C 864.232,923.901 864.566,922.568 865.5,921.5C 865.5,922.5 865.5,923.5 865.5,924.5C 869.833,924.5 874.167,924.5 878.5,924.5C 878.5,923.167 878.5,921.833 878.5,920.5 Z"/></g>
<g><path style="opacity:1" fill="#8f8f8f" d="M 1163.5,920.5 C 1163.5,921.833 1163.5,923.167 1163.5,924.5C 1167.83,924.5 1172.17,924.5 1176.5,924.5C 1172.03,925.486 1167.36,925.819 1162.5,925.5C 1162.22,923.585 1162.55,921.919 1163.5,920.5 Z"/></g>
<g><path style="opacity:1" fill="#f7f7f7" d="M 910.5,927.5 C 911.65,932.316 911.816,937.316 911,942.5C 907.254,946.393 903.588,946.393 900,942.5C 899.333,940.167 899.333,937.833 900,935.5C 903.299,932.449 906.799,929.782 910.5,927.5 Z"/></g>
<g><path style="opacity:1" fill="#272727" d="M 1064.5,901.5 C 1064.5,902.167 1064.5,902.833 1064.5,903.5C 1064.57,904.959 1064.23,906.292 1063.5,907.5C 1060.21,917.062 1056.54,926.396 1052.5,935.5C 1052.17,935.5 1051.83,935.5 1051.5,935.5C 1055.46,923.935 1059.8,912.602 1064.5,901.5 Z"/></g>
<g><path style="opacity:1" fill="#191919" d="M 844.5,948.5 C 843.167,947.833 841.833,947.167 840.5,946.5C 843.195,946.067 845.362,944.734 847,942.5C 848.452,939.263 849.619,935.93 850.5,932.5C 851.495,937.792 851.828,943.125 851.5,948.5C 849.167,948.5 846.833,948.5 844.5,948.5 Z"/></g>
<g><path style="opacity:1" fill="#e8e8e8" d="M 1271.5,964.5 C 1271.17,964.5 1270.83,964.5 1270.5,964.5C 1279.75,953.013 1289.25,941.679 1299,930.5C 1304.91,922.34 1310.58,914.007 1316,905.5C 1315.3,909.599 1313.97,913.599 1312,917.5C 1307.96,921.2 1304.3,925.2 1301,929.5C 1295.28,940.443 1288.45,950.61 1280.5,960C 1277.76,962.038 1274.76,963.538 1271.5,964.5 Z"/></g>
<g><path style="opacity:1" fill="#343434" d="M 817.5,946.5 C 821.833,947.833 826.167,947.833 830.5,946.5C 833.833,946.5 837.167,946.5 840.5,946.5C 841.833,947.167 843.167,947.833 844.5,948.5C 834.145,948.832 823.812,948.499 813.5,947.5C 814.689,946.571 816.022,946.238 817.5,946.5 Z"/></g>
<g><path style="opacity:1" fill="#1e1e1e" d="M 723.5,953.5 C 727.688,954.19 730.022,956.69 730.5,961C 726.362,960.588 723.028,958.588 720.5,955C 721.737,954.768 722.737,954.268 723.5,953.5 Z"/></g>
<g><path style="opacity:1" fill="#e7e7e7" d="M 748.5,983.5 C 751.69,988.021 755.024,992.521 758.5,997C 760.076,996.848 761.409,996.015 762.5,994.5C 762.91,998.104 763.077,1001.77 763,1005.5C 767.167,1009.67 771.333,1013.83 775.5,1018C 763.304,1012.7 752.97,1004.7 744.5,994C 748.088,994.3 751.088,995.967 753.5,999C 754.759,999.982 756.092,1000.32 757.5,1000C 752.013,995.86 749.013,990.36 748.5,983.5 Z"/></g>
<g><path style="opacity:1" fill="#5c5c5c" d="M 774.5,991.5 C 775.675,991.281 776.675,991.614 777.5,992.5C 776.14,993.665 775.14,993.332 774.5,991.5 Z"/></g>
<g><path style="opacity:1" fill="#111111" d="M 1255.5,968.5 C 1258.06,968.198 1260.39,968.532 1262.5,969.5C 1260.4,969.201 1258.4,969.534 1256.5,970.5C 1257.73,971.281 1259.06,971.781 1260.5,972C 1257.17,975.333 1253.83,978.667 1250.5,982C 1238.07,989.556 1226.74,998.556 1216.5,1009C 1214.5,1009.33 1212.5,1009.67 1210.5,1010C 1205.34,1014.41 1199.68,1018.08 1193.5,1021C 1190.59,1022.32 1187.59,1022.65 1184.5,1022C 1184.83,1021.67 1185.17,1021.33 1185.5,1021C 1192.9,1018.06 1199.06,1013.56 1204,1007.5C 1204.84,1009.01 1206,1009.51 1207.5,1009C 1211.2,1004.96 1215.2,1001.3 1219.5,998C 1222.44,997.03 1225.44,996.196 1228.5,995.5C 1227.83,994.833 1227.17,994.167 1226.5,993.5C 1230.13,993.016 1233.46,991.849 1236.5,990C 1237.98,982.491 1242.32,977.657 1249.5,975.5C 1248.62,970.717 1250.62,968.384 1255.5,968.5 Z"/></g>
<g><path style="opacity:1" fill="#f4f4f4" d="M 783.5,1043.5 C 783.56,1042.96 783.893,1042.62 784.5,1042.5C 786.843,1043.92 789.343,1044.92 792,1045.5C 793.787,1044.24 795.621,1043.41 797.5,1043C 807.919,1052.76 818.919,1061.76 830.5,1070C 853.766,1082.47 877.433,1094.13 901.5,1105C 902.167,1106.67 902.833,1108.33 903.5,1110C 906.146,1110.5 908.813,1110.66 911.5,1110.5C 911.5,1111.5 911.5,1112.5 911.5,1113.5C 907.818,1113.67 904.152,1113.5 900.5,1113C 892.61,1108.93 884.277,1106.26 875.5,1105C 873.191,1102.51 870.524,1100.51 867.5,1099C 857.955,1094.06 848.289,1089.39 838.5,1085C 835.377,1083.12 832.711,1080.78 830.5,1078C 821.52,1072.36 812.52,1066.7 803.5,1061C 804.089,1059.13 803.422,1057.46 801.5,1056C 799.893,1055.88 798.393,1056.38 797,1057.5C 794.763,1054.7 792.763,1051.7 791,1048.5C 788.618,1046.61 786.118,1044.94 783.5,1043.5 Z"/></g>
<g><path style="opacity:1" fill="#8d8d8d" d="M 1012.5,1084.5 C 1009.61,1084.19 1006.95,1084.53 1004.5,1085.5C 1003.71,1085.22 1003.04,1084.72 1002.5,1084C 1006.03,1083.19 1009.36,1083.36 1012.5,1084.5 Z"/></g>
</svg>
